<?xml version="1.0" standalone="no"?>
<!DOCTYPE svg PUBLIC "-//W3C//DTD SVG 20010904//EN"
 "http://www.w3.org/TR/2001/REC-SVG-20010904/DTD/svg10.dtd">
<svg version="1.0" xmlns="http://www.w3.org/2000/svg"
 width="512.000000pt" height="512.000000pt" viewBox="0 0 512.000000 512.000000"
 preserveAspectRatio="xMidYMid meet">
<metadata>
Created by potrace 1.14, written by Peter Selinger 2001-2017
</metadata>
<g transform="translate(0.000000,512.000000) scale(0.100000,-0.100000)"
fill="#000000" stroke="none">
<path d="M2440 4820 c0 -18 -7 -20 -80 -20 -73 0 -80 -2 -80 -20 0 -17 -7 -20
-40 -20 -33 0 -40 -3 -40 -20 0 -17 -7 -20 -40 -20 -33 0 -40 -3 -40 -20 0
-17 -7 -20 -40 -20 -33 0 -40 -3 -40 -20 0 -17 -7 -20 -40 -20 l-40 0 0 -40 0
-40 -40 0 -40 0 0 -40 0 -40 -40 0 -40 0 0 -40 0 -40 -40 0 -40 0 0 -40 c0
-33 -3 -40 -20 -40 -18 0 -20 -7 -20 -60 0 -53 -2 -60 -20 -60 -18 0 -20 -7
-20 -60 0 -53 -2 -60 -20 -60 -18 0 -20 -7 -20 -80 0 -73 -2 -80 -20 -80 -19
0 -20 -7 -20 -120 l0 -120 -40 0 c-33 0 -40 3 -40 20 0 18 -7 20 -60 20 -53 0
-60 -2 -60 -20 0 -19 -7 -20 -100 -20 -93 0 -100 -1 -100 -20 0 -18 -7 -20
-60 -20 -53 0 -60 -2 -60 -20 0 -17 -7 -20 -40 -20 -33 0 -40 -3 -40 -20 0
-17 -7 -20 -40 -20 -33 0 -40 -3 -40 -20 0 -13 -7 -20 -20 -20 -13 0 -20 -7
-20 -20 0 -13 -7 -20 -20 -20 -13 0 -20 -7 -20 -20 0 -17 -7 -20 -40 -20 -33
0 -40 -3 -40 -20 0 -13 -7 -20 -20 -20 -13 0 -20 -7 -20 -20 0 -13 -7 -20 -20
-20 -17 0 -20 -7 -20 -40 l0 -40 -40 0 -40 0 0 -40 c0 -33 -3 -40 -20 -40 -17
0 -20 -7 -20 -40 0 -33 -3 -40 -20 -40 -13 0 -20 -7 -20 -20 0 -13 -7 -20 -20
-20 -18 0 -20 -7 -20 -60 0 -53 -2 -60 -20 -60 -19 0 -20 -7 -20 -120 0 -113
-1 -120 -20 -120 -13 0 -20 -7 -20 -20 0 -13 7 -20 20 -20 13 0 20 -7 20 -20
0 -17 -7 -20 -40 -20 -33 0 -40 -3 -40 -20 0 -19 -7 -20 -100 -20 -93 0 -100
-1 -100 -20 0 -13 -7 -20 -20 -20 -13 0 -20 -7 -20 -20 0 -13 7 -20 20 -20 17
0 20 -7 20 -40 l0 -40 40 0 c33 0 40 -3 40 -20 0 -13 7 -20 20 -20 17 0 20 -7
20 -40 0 -33 3 -40 20 -40 17 0 20 -7 20 -40 0 -33 3 -40 20 -40 13 0 20 -7
20 -20 0 -13 7 -20 20 -20 13 0 20 -7 20 -20 0 -13 7 -20 20 -20 13 0 20 -7
20 -20 0 -13 7 -20 20 -20 13 0 20 -7 20 -20 0 -13 7 -20 20 -20 13 0 20 -7
20 -20 0 -17 7 -20 40 -20 33 0 40 -3 40 -20 0 -13 7 -20 20 -20 13 0 20 -7
20 -20 0 -13 7 -20 20 -20 13 0 20 -7 20 -20 0 -17 7 -20 40 -20 33 0 40 -3
40 -20 0 -13 7 -20 20 -20 13 0 20 -7 20 -20 0 -13 7 -20 20 -20 13 0 20 -7
20 -20 0 -17 7 -20 40 -20 33 0 40 -3 40 -20 0 -13 7 -20 20 -20 13 0 20 -7
20 -20 0 -18 7 -20 60 -20 53 0 60 -2 60 -20 0 -18 7 -20 60 -20 53 0 60 -2
60 -20 0 -18 7 -20 60 -20 53 0 60 -2 60 -20 0 -13 7 -20 20 -20 13 0 20 7 20
20 0 18 7 20 60 20 53 0 60 -2 60 -20 0 -18 7 -20 60 -20 53 0 60 2 60 20 0
19 7 20 100 20 93 0 100 1 100 20 0 17 7 20 40 20 33 0 40 3 40 20 0 18 7 20
60 20 53 0 60 2 60 20 0 13 7 20 20 20 13 0 20 7 20 20 0 13 7 20 20 20 13 0
20 7 20 20 0 17 7 20 40 20 33 0 40 3 40 20 0 13 7 20 20 20 13 0 20 7 20 20
0 13 7 20 20 20 13 0 20 7 20 20 0 13 7 20 20 20 13 0 20 7 20 20 0 13 7 20
20 20 13 0 20 7 20 20 0 13 7 20 20 20 17 0 20 7 20 40 0 33 3 40 20 40 13 0
20 7 20 20 0 13 7 20 20 20 17 0 20 7 20 40 0 33 3 40 20 40 17 0 20 7 20 40
0 33 3 40 20 40 19 0 20 7 20 120 0 113 1 120 20 120 17 0 20 7 20 40 0 33 -3
40 -20 40 -13 0 -20 7 -20 20 0 13 7 20 20 20 17 0 20 7 20 40 l0 40 160 0
c153 0 160 1 160 20 0 13 7 20 20 20 19 0 20 -7 20 -100 0 -93 -1 -100 -20
-100 -17 0 -20 -7 -20 -40 0 -33 3 -40 20 -40 13 0 20 -7 20 -20 0 -13 -7 -20
-20 -20 -19 0 -20 -7 -20 -100 0 -93 1 -100 20 -100 17 0 20 -7 20 -40 0 -33
3 -40 20 -40 18 0 20 -7 20 -60 0 -53 2 -60 20 -60 13 0 20 -7 20 -20 0 -13 7
-20 20 -20 17 0 20 -7 20 -40 0 -33 3 -40 20 -40 17 0 20 -7 20 -40 0 -33 3
-40 20 -40 17 0 20 -7 20 -40 0 -33 3 -40 20 -40 13 0 20 -7 20 -20 0 -17 7
-20 40 -20 33 0 40 -3 40 -20 0 -17 7 -20 40 -20 33 0 40 -3 40 -20 0 -13 7
-20 20 -20 13 0 20 -7 20 -20 0 -13 7 -20 20 -20 13 0 20 -7 20 -20 0 -13 7
-20 20 -20 13 0 20 -7 20 -20 0 -18 7 -20 80 -20 73 0 80 -2 80 -20 0 -18 7
-20 80 -20 73 0 80 -2 80 -20 0 -19 7 -20 200 -20 193 0 200 1 200 20 0 18 7
20 80 20 73 0 80 2 80 20 0 17 7 20 40 20 33 0 40 3 40 20 0 17 7 20 40 20 33
0 40 3 40 20 0 17 7 20 40 20 33 0 40 3 40 20 0 13 7 20 20 20 13 0 20 7 20
20 0 13 7 20 20 20 13 0 20 7 20 20 0 17 7 20 40 20 33 0 40 3 40 20 0 13 7
20 20 20 17 0 20 7 20 40 0 33 3 40 20 40 13 0 20 7 20 20 0 13 7 20 20 20 17
0 20 7 20 40 0 33 3 40 20 40 13 0 20 7 20 20 0 13 7 20 20 20 13 0 20 7 20
20 0 13 7 20 20 20 18 0 20 7 20 60 0 53 2 60 20 60 13 0 20 7 20 20 0 13 -7
20 -20 20 -13 0 -20 7 -20 20 0 13 7 20 20 20 18 0 20 7 20 80 0 73 2 80 20
80 13 0 20 7 20 20 0 13 -7 20 -20 20 -18 0 -20 7 -20 60 0 53 2 60 20 60 18
0 20 7 20 60 0 53 -2 60 -20 60 -17 0 -20 7 -20 40 0 33 -3 40 -20 40 -18 0
-20 7 -20 60 0 53 -2 60 -20 60 -17 0 -20 7 -20 40 0 33 -3 40 -20 40 -17 0
-20 7 -20 40 0 33 -3 40 -20 40 -13 0 -20 7 -20 20 0 13 -7 20 -20 20 -17 0
-20 7 -20 40 0 33 -3 40 -20 40 -13 0 -20 7 -20 20 0 13 -7 20 -20 20 -13 0
-20 7 -20 20 0 13 -7 20 -20 20 -13 0 -20 7 -20 20 0 17 -7 20 -40 20 -33 0
-40 3 -40 20 0 13 -7 20 -20 20 -13 0 -20 7 -20 20 0 17 -7 20 -40 20 -33 0
-40 3 -40 20 0 13 -7 20 -20 20 -13 0 -20 7 -20 20 0 18 -7 20 -80 20 -73 0
-80 2 -80 20 0 18 -7 20 -60 20 -53 0 -60 2 -60 20 0 19 -7 20 -200 20 -193 0
-200 -1 -200 -20 0 -13 -7 -20 -20 -20 -18 0 -20 7 -20 80 0 73 2 80 20 80 19
0 20 7 20 120 0 113 -1 120 -20 120 -18 0 -20 7 -20 80 0 73 -2 80 -20 80 -18
0 -20 7 -20 60 0 53 -2 60 -20 60 -18 0 -20 7 -20 60 0 53 -2 60 -20 60 -17 0
-20 7 -20 40 l0 40 -40 0 -40 0 0 40 0 40 -40 0 -40 0 0 40 0 40 -40 0 -40 0
0 40 0 40 -40 0 c-33 0 -40 3 -40 20 0 17 -7 20 -40 20 -33 0 -40 3 -40 20 0
17 -7 20 -40 20 -33 0 -40 3 -40 20 0 17 -7 20 -40 20 -33 0 -40 3 -40 20 0
18 -7 20 -80 20 -73 0 -80 2 -80 20 0 19 -7 20 -200 20 -193 0 -200 -1 -200
-20z m400 -80 c0 -18 7 -20 80 -20 73 0 80 -2 80 -20 0 -17 7 -20 40 -20 33 0
40 -3 40 -20 0 -17 7 -20 40 -20 33 0 40 -3 40 -20 0 -17 7 -20 40 -20 33 0
40 -3 40 -20 0 -13 7 -20 20 -20 13 0 20 -7 20 -20 0 -13 7 -20 20 -20 13 0
20 -7 20 -20 0 -13 7 -20 20 -20 13 0 20 -7 20 -20 0 -13 7 -20 20 -20 13 0
20 -7 20 -20 0 -19 -7 -20 -120 -20 -113 0 -120 -1 -120 -20 0 -17 -7 -20 -40
-20 -33 0 -40 -3 -40 -20 0 -17 -7 -20 -40 -20 -33 0 -40 -3 -40 -20 0 -13 -7
-20 -20 -20 -13 0 -20 -7 -20 -20 0 -13 -7 -20 -20 -20 -13 0 -20 -7 -20 -20
0 -17 -7 -20 -40 -20 -33 0 -40 -3 -40 -20 0 -13 -7 -20 -20 -20 -17 0 -20 -7
-20 -40 0 -33 3 -40 20 -40 13 0 20 7 20 20 0 13 7 20 20 20 13 0 20 7 20 20
0 17 7 20 40 20 33 0 40 3 40 20 0 13 7 20 20 20 13 0 20 7 20 20 0 13 7 20
20 20 13 0 20 7 20 20 0 17 7 20 40 20 33 0 40 3 40 20 0 17 7 20 40 20 33 0
40 3 40 20 0 19 7 20 120 20 113 0 120 -1 120 -20 0 -13 7 -20 20 -20 13 0 20
-7 20 -20 0 -13 7 -20 20 -20 17 0 20 -7 20 -40 0 -33 3 -40 20 -40 18 0 20
-7 20 -60 0 -53 2 -60 20 -60 19 0 20 -7 20 -100 l0 -100 -60 0 c-53 0 -60 -2
-60 -20 0 -13 -7 -20 -20 -20 -13 0 -20 -7 -20 -20 0 -17 -7 -20 -40 -20 -33
0 -40 -3 -40 -20 0 -18 -7 -20 -60 -20 -53 0 -60 -2 -60 -20 0 -18 -7 -20 -60
-20 -53 0 -60 -2 -60 -20 0 -19 -7 -20 -100 -20 -93 0 -100 -1 -100 -20 0 -19
-7 -20 -100 -20 -93 0 -100 -1 -100 -20 0 -18 -7 -20 -80 -20 -73 0 -80 2 -80
20 0 19 -7 20 -100 20 -93 0 -100 1 -100 20 0 19 -7 20 -100 20 -93 0 -100 1
-100 20 0 18 -7 20 -60 20 -53 0 -60 2 -60 20 0 18 -7 20 -60 20 -53 0 -60 2
-60 20 0 17 -7 20 -40 20 -33 0 -40 3 -40 20 0 13 -7 20 -20 20 -13 0 -20 7
-20 20 0 18 -7 20 -60 20 l-60 0 0 100 c0 93 1 100 20 100 18 0 20 7 20 60 0
53 2 60 20 60 17 0 20 7 20 40 0 33 3 40 20 40 13 0 20 7 20 20 0 13 7 20 20
20 13 0 20 7 20 20 0 19 7 20 120 20 113 0 120 -1 120 -20 0 -17 7 -20 40 -20
33 0 40 -3 40 -20 0 -17 7 -20 40 -20 33 0 40 -3 40 -20 0 -13 7 -20 20 -20
13 0 20 -7 20 -20 0 -13 7 -20 20 -20 13 0 20 -7 20 -20 0 -17 7 -20 40 -20
33 0 40 -3 40 -20 0 -13 7 -20 20 -20 13 0 20 -7 20 -20 0 -13 7 -20 20 -20
17 0 20 7 20 40 0 33 -3 40 -20 40 -13 0 -20 7 -20 20 0 17 -7 20 -40 20 -33
0 -40 3 -40 20 0 13 -7 20 -20 20 -13 0 -20 7 -20 20 0 13 -7 20 -20 20 -13 0
-20 7 -20 20 0 17 -7 20 -40 20 -33 0 -40 3 -40 20 0 17 -7 20 -40 20 -33 0
-40 3 -40 20 0 19 -7 20 -120 20 -113 0 -120 1 -120 20 0 13 7 20 20 20 13 0
20 7 20 20 0 13 7 20 20 20 13 0 20 7 20 20 0 13 7 20 20 20 13 0 20 7 20 20
0 13 7 20 20 20 13 0 20 7 20 20 0 17 7 20 40 20 33 0 40 3 40 20 0 17 7 20
40 20 33 0 40 3 40 20 0 17 7 20 40 20 33 0 40 3 40 20 0 18 7 20 80 20 73 0
80 2 80 20 0 19 7 20 200 20 193 0 200 -1 200 -20z m-1080 -920 c0 -13 7 -20
20 -20 13 0 20 -7 20 -20 0 -17 7 -20 40 -20 l40 0 0 -80 c0 -73 -2 -80 -20
-80 -13 0 -20 7 -20 20 0 18 -7 20 -60 20 -53 0 -60 2 -60 20 0 13 -7 20 -20
20 -18 0 -20 7 -20 80 l0 80 40 0 c33 0 40 -3 40 -20z m1840 -140 c0 -153 -1
-160 -20 -160 -18 0 -20 -7 -20 -60 0 -53 -2 -60 -20 -60 -17 0 -20 -7 -20
-40 0 -33 -3 -40 -20 -40 -13 0 -20 -7 -20 -20 0 -13 -7 -20 -20 -20 -17 0
-20 -7 -20 -40 0 -33 -3 -40 -20 -40 -20 0 -20 7 -20 280 l0 280 40 0 c33 0
40 3 40 20 0 13 7 20 20 20 13 0 20 7 20 20 0 17 7 20 40 20 l40 0 0 -160z
m-1600 20 c0 -18 7 -20 60 -20 53 0 60 -2 60 -20 0 -17 7 -20 40 -20 l40 0 0
-120 c0 -113 -1 -120 -20 -120 -13 0 -20 7 -20 20 0 13 -7 20 -20 20 -13 0
-20 7 -20 20 0 13 -7 20 -20 20 -13 0 -20 7 -20 20 0 17 -7 20 -40 20 -33 0
-40 3 -40 20 0 13 -7 20 -20 20 -18 0 -20 7 -20 80 0 73 2 80 20 80 13 0 20
-7 20 -20z m1320 -300 c0 -313 0 -320 -20 -320 -13 0 -20 -7 -20 -20 0 -13 -7
-20 -20 -20 -13 0 -20 -7 -20 -20 0 -17 -7 -20 -40 -20 -33 0 -40 -3 -40 -20
0 -17 -7 -20 -40 -20 l-40 0 0 340 0 340 40 0 c33 0 40 3 40 20 0 18 7 20 60
20 53 0 60 2 60 20 0 13 7 20 20 20 20 0 20 -7 20 -320z m-1840 220 c0 -19 7
-20 120 -20 113 0 120 -1 120 -20 0 -18 7 -20 80 -20 73 0 80 -2 80 -20 0 -17
7 -20 40 -20 33 0 40 -3 40 -20 0 -13 7 -20 20 -20 13 0 20 -7 20 -20 0 -13 7
-20 20 -20 13 0 20 -7 20 -20 0 -13 7 -20 20 -20 13 0 20 -7 20 -20 0 -13 7
-20 20 -20 13 0 20 -7 20 -20 0 -17 7 -20 40 -20 l40 0 0 -40 c0 -33 3 -40 20
-40 13 0 20 -7 20 -20 0 -13 7 -20 20 -20 17 0 20 -7 20 -40 0 -33 3 -40 20
-40 13 0 20 -7 20 -20 0 -13 7 -20 20 -20 19 0 20 -7 20 -100 0 -93 1 -100 20
-100 19 0 20 -7 20 -120 0 -113 1 -120 20 -120 17 0 20 -7 20 -40 0 -33 -3
-40 -20 -40 -19 0 -20 -7 -20 -100 0 -93 -1 -100 -20 -100 -17 0 -20 -7 -20
-40 0 -33 -3 -40 -20 -40 -17 0 -20 -7 -20 -40 0 -33 -3 -40 -20 -40 -17 0
-20 -7 -20 -40 0 -33 -3 -40 -20 -40 -13 0 -20 -7 -20 -20 0 -13 -7 -20 -20
-20 -17 0 -20 -7 -20 -40 0 -33 -3 -40 -20 -40 -13 0 -20 -7 -20 -20 0 -17 -7
-20 -40 -20 -33 0 -40 -3 -40 -20 0 -17 -7 -20 -40 -20 -33 0 -40 -3 -40 -20
0 -13 -7 -20 -20 -20 -13 0 -20 -7 -20 -20 0 -13 -7 -20 -20 -20 -13 0 -20 -7
-20 -20 0 -17 -7 -20 -40 -20 -33 0 -40 -3 -40 -20 0 -17 -7 -20 -40 -20 -33
0 -40 -3 -40 -20 0 -19 -7 -20 -120 -20 -113 0 -120 -1 -120 -20 0 -18 -7 -20
-60 -20 -53 0 -60 2 -60 20 0 17 -7 20 -40 20 -33 0 -40 -3 -40 -20 0 -13 -7
-20 -20 -20 -13 0 -20 7 -20 20 0 13 -7 20 -20 20 -13 0 -20 7 -20 20 0 19 -7
20 -120 20 -113 0 -120 1 -120 20 0 13 -7 20 -20 20 -13 0 -20 7 -20 20 0 17
-7 20 -40 20 -33 0 -40 3 -40 20 0 13 -7 20 -20 20 -13 0 -20 7 -20 20 0 13
-7 20 -20 20 -13 0 -20 7 -20 20 0 17 -7 20 -40 20 l-40 0 0 40 0 40 -60 0
c-53 0 -60 2 -60 20 0 13 -7 20 -20 20 -13 0 -20 7 -20 20 0 13 -7 20 -20 20
-13 0 -20 7 -20 20 0 13 -7 20 -20 20 -13 0 -20 7 -20 20 0 13 -7 20 -20 20
-13 0 -20 7 -20 20 0 17 -7 20 -40 20 l-40 0 0 40 c0 33 -3 40 -20 40 -17 0
-20 7 -20 40 0 33 -3 40 -20 40 -13 0 -20 7 -20 20 0 13 -7 20 -20 20 -17 0
-20 7 -20 40 l0 40 40 0 c33 0 40 3 40 20 0 18 7 20 80 20 l80 0 0 80 c0 73
-2 80 -20 80 -13 0 -20 7 -20 20 0 13 7 20 20 20 18 0 20 7 20 80 0 73 2 80
20 80 18 0 20 7 20 60 0 53 2 60 20 60 13 0 20 7 20 20 0 13 7 20 20 20 18 0
20 7 20 60 0 53 2 60 20 60 13 0 20 7 20 20 0 13 7 20 20 20 13 0 20 7 20 20
0 13 7 20 20 20 17 0 20 7 20 40 l0 40 40 0 c33 0 40 3 40 20 0 13 7 20 20 20
13 0 20 7 20 20 0 17 7 20 40 20 33 0 40 3 40 20 0 13 7 20 20 20 13 0 20 7
20 20 0 18 7 20 60 20 53 0 60 2 60 20 0 17 7 20 40 20 33 0 40 3 40 20 0 19
7 20 100 20 93 0 100 1 100 20 0 18 7 20 60 20 53 0 60 -2 60 -20z m840 0 c0
-19 7 -20 100 -20 93 0 100 -1 100 -20 0 -17 7 -20 40 -20 l40 0 0 -360 0
-360 -40 0 c-33 0 -40 3 -40 20 0 13 -7 20 -20 20 -17 0 -20 7 -20 40 0 33 -3
40 -20 40 -18 0 -20 7 -20 60 0 53 -2 60 -20 60 -13 0 -20 7 -20 20 0 13 -7
20 -20 20 -18 0 -20 7 -20 60 0 53 -2 60 -20 60 -17 0 -20 7 -20 40 0 33 -3
40 -20 40 -19 0 -20 7 -20 160 0 153 1 160 20 160 13 0 20 -7 20 -20z m680
-360 l0 -380 -80 0 c-73 0 -80 -2 -80 -20 0 -18 -7 -20 -80 -20 l-80 0 0 360
0 360 40 0 c33 0 40 3 40 20 0 19 7 20 100 20 93 0 100 1 100 20 0 13 7 20 20
20 20 0 20 -7 20 -380z m1120 200 c0 -18 7 -20 60 -20 53 0 60 -2 60 -20 0
-18 7 -20 80 -20 73 0 80 -2 80 -20 0 -13 7 -20 20 -20 13 0 20 -7 20 -20 0
-13 7 -20 20 -20 13 0 20 -7 20 -20 0 -17 7 -20 40 -20 33 0 40 -3 40 -20 0
-13 7 -20 20 -20 13 0 20 -7 20 -20 0 -13 7 -20 20 -20 13 0 20 -7 20 -20 0
-13 7 -20 20 -20 13 0 20 -7 20 -20 0 -13 7 -20 20 -20 17 0 20 -7 20 -40 0
-33 3 -40 20 -40 17 0 20 -7 20 -40 0 -33 3 -40 20 -40 13 0 20 -7 20 -20 0
-13 7 -20 20 -20 19 0 20 -7 20 -120 0 -113 1 -120 20 -120 18 0 20 -7 20 -80
0 -73 -2 -80 -20 -80 -13 0 -20 7 -20 20 0 19 -7 20 -140 20 -133 0 -140 -1
-140 -20 0 -17 -7 -20 -40 -20 -33 0 -40 -3 -40 -20 0 -13 -7 -20 -20 -20 -17
0 -20 -7 -20 -40 0 -33 3 -40 20 -40 13 0 20 -7 20 -20 0 -19 7 -20 140 -20
133 0 140 1 140 20 0 13 7 20 20 20 13 0 20 7 20 20 0 17 7 20 40 20 33 0 40
3 40 20 0 13 7 20 20 20 13 0 20 -7 20 -20 0 -13 -7 -20 -20 -20 -19 0 -20 -7
-20 -100 0 -93 -1 -100 -20 -100 -18 0 -20 -7 -20 -60 0 -53 -2 -60 -20 -60
-17 0 -20 -7 -20 -40 0 -33 -3 -40 -20 -40 -13 0 -20 -7 -20 -20 0 -13 -7 -20
-20 -20 -17 0 -20 -7 -20 -40 0 -33 -3 -40 -20 -40 -13 0 -20 -7 -20 -20 0
-13 -7 -20 -20 -20 -13 0 -20 -7 -20 -20 0 -13 -7 -20 -20 -20 -13 0 -20 -7
-20 -20 0 -13 -7 -20 -20 -20 -13 0 -20 -7 -20 -20 0 -17 -7 -20 -40 -20 -33
0 -40 -3 -40 -20 0 -13 -7 -20 -20 -20 -13 0 -20 -7 -20 -20 0 -17 -7 -20 -40
-20 -33 0 -40 -3 -40 -20 0 -17 -7 -20 -40 -20 -33 0 -40 -3 -40 -20 0 -18 -7
-20 -80 -20 -73 0 -80 -2 -80 -20 0 -19 -7 -20 -220 -20 -213 0 -220 1 -220
20 0 18 -7 20 -60 20 -53 0 -60 2 -60 20 0 18 -7 20 -60 20 -53 0 -60 2 -60
20 0 13 -7 20 -20 20 -13 0 -20 7 -20 20 0 17 -7 20 -40 20 -33 0 -40 3 -40
20 0 13 -7 20 -20 20 -13 0 -20 7 -20 20 0 17 -7 20 -40 20 -33 0 -40 3 -40
20 0 13 -7 20 -20 20 -17 0 -20 7 -20 40 0 33 -3 40 -20 40 -13 0 -20 7 -20
20 0 13 -7 20 -20 20 -17 0 -20 7 -20 40 0 33 -3 40 -20 40 -17 0 -20 7 -20
40 0 33 -3 40 -20 40 -19 0 -20 7 -20 100 0 93 -1 100 -20 100 -19 0 -20 7
-20 100 0 93 -1 100 -20 100 -18 0 -20 7 -20 60 0 53 2 60 20 60 18 0 20 7 20
80 0 73 2 80 20 80 13 0 20 7 20 20 0 17 7 20 40 20 33 0 40 3 40 20 0 17 7
20 40 20 33 0 40 3 40 20 0 17 7 20 40 20 33 0 40 3 40 20 0 17 7 20 40 20
l40 0 0 40 0 40 40 0 40 0 0 40 0 40 40 0 40 0 0 40 0 40 40 0 40 0 0 40 c0
33 3 40 20 40 18 0 20 7 20 60 0 53 2 60 20 60 13 0 20 7 20 20 0 18 7 20 60
20 53 0 60 2 60 20 0 19 7 20 180 20 173 0 180 -1 180 -20z"/>
<path d="M1840 4140 c0 -17 -7 -20 -40 -20 -33 0 -40 -3 -40 -20 0 -13 -7 -20
-20 -20 -13 0 -20 -7 -20 -20 0 -13 7 -20 20 -20 13 0 20 -7 20 -20 0 -17 7
-20 40 -20 33 0 40 -3 40 -20 0 -19 7 -20 120 -20 113 0 120 1 120 20 0 17 7
20 40 20 33 0 40 3 40 20 0 13 7 20 20 20 13 0 20 7 20 20 0 13 -7 20 -20 20
-13 0 -20 7 -20 20 0 17 -7 20 -40 20 -33 0 -40 3 -40 20 0 19 -7 20 -120 20
-113 0 -120 -1 -120 -20z"/>
<path d="M3200 4140 c0 -17 -7 -20 -40 -20 -33 0 -40 -3 -40 -20 0 -13 -7 -20
-20 -20 -13 0 -20 -7 -20 -20 0 -13 7 -20 20 -20 13 0 20 -7 20 -20 0 -17 7
-20 40 -20 33 0 40 -3 40 -20 0 -19 7 -20 120 -20 113 0 120 1 120 20 0 17 7
20 40 20 33 0 40 3 40 20 0 13 7 20 20 20 13 0 20 7 20 20 0 13 -7 20 -20 20
-13 0 -20 7 -20 20 0 17 -7 20 -40 20 -33 0 -40 3 -40 20 0 19 -7 20 -120 20
-113 0 -120 -1 -120 -20z"/>
<path d="M1880 3220 c0 -19 -7 -20 -100 -20 -93 0 -100 -1 -100 -20 0 -17 -7
-20 -40 -20 -33 0 -40 -3 -40 -20 0 -13 -7 -20 -20 -20 -18 0 -20 -7 -20 -60
0 -53 -2 -60 -20 -60 -13 0 -20 -7 -20 -20 0 -13 -7 -20 -20 -20 -18 0 -20 -7
-20 -60 0 -53 2 -60 20 -60 13 0 20 -7 20 -20 0 -13 7 -20 20 -20 13 0 20 -7
20 -20 0 -13 7 -20 20 -20 13 0 20 -7 20 -20 0 -17 7 -20 40 -20 33 0 40 3 40
20 0 18 7 20 60 20 53 0 60 2 60 20 0 17 7 20 40 20 33 0 40 3 40 20 0 13 7
20 20 20 13 0 20 7 20 20 0 13 7 20 20 20 18 0 20 7 20 60 0 53 -2 60 -20 60
-13 0 -20 7 -20 20 0 13 -7 20 -20 20 -17 0 -20 7 -20 40 l0 40 60 0 c53 0 60
-2 60 -20 0 -17 7 -20 40 -20 33 0 40 -3 40 -20 0 -13 7 -20 20 -20 13 0 20
-7 20 -20 0 -17 7 -20 40 -20 l40 0 0 40 c0 33 -3 40 -20 40 -13 0 -20 7 -20
20 0 13 -7 20 -20 20 -13 0 -20 7 -20 20 0 17 -7 20 -40 20 -33 0 -40 3 -40
20 0 18 -7 20 -60 20 -53 0 -60 2 -60 20 0 13 -7 20 -20 20 -13 0 -20 -7 -20
-20z"/>
<path d="M720 3020 c0 -13 -7 -20 -20 -20 -13 0 -20 -7 -20 -20 0 -13 -7 -20
-20 -20 -13 0 -20 -7 -20 -20 0 -13 -7 -20 -20 -20 -17 0 -20 -7 -20 -40 0
-33 -3 -40 -20 -40 -17 0 -20 -7 -20 -40 0 -33 -3 -40 -20 -40 -13 0 -20 -7
-20 -20 0 -13 7 -20 20 -20 17 0 20 -7 20 -40 0 -33 3 -40 20 -40 13 0 20 -7
20 -20 0 -13 7 -20 20 -20 13 0 20 -7 20 -20 0 -18 7 -20 60 -20 53 0 60 2 60
20 0 18 7 20 60 20 53 0 60 2 60 20 0 13 7 20 20 20 13 0 20 7 20 20 0 13 7
20 20 20 13 0 20 7 20 20 0 13 7 20 20 20 18 0 20 7 20 60 0 53 -2 60 -20 60
-13 0 -20 7 -20 20 0 13 -7 20 -20 20 -13 0 -20 7 -20 20 0 13 7 20 20 20 13
0 20 7 20 20 0 17 7 20 40 20 33 0 40 -3 40 -20 0 -17 7 -20 40 -20 33 0 40
-3 40 -20 0 -13 7 -20 20 -20 13 0 20 -7 20 -20 0 -18 7 -20 60 -20 l60 0 0
40 0 40 -40 0 c-33 0 -40 3 -40 20 0 13 -7 20 -20 20 -13 0 -20 7 -20 20 0 17
-7 20 -40 20 -33 0 -40 3 -40 20 0 19 -7 20 -180 20 -173 0 -180 -1 -180 -20z"/>
<path d="M2040 2780 c0 -13 -7 -20 -20 -20 -13 0 -20 -7 -20 -20 0 -13 -7 -20
-20 -20 -13 0 -20 -7 -20 -20 0 -13 -7 -20 -20 -20 -13 0 -20 -7 -20 -20 0
-13 -7 -20 -20 -20 -13 0 -20 -7 -20 -20 0 -18 7 -20 80 -20 73 0 80 -2 80
-20 0 -19 7 -20 100 -20 93 0 100 1 100 20 0 13 7 20 20 20 13 0 20 7 20 20 0
13 7 20 20 20 13 0 20 7 20 20 0 13 7 20 20 20 13 0 20 7 20 20 0 13 -7 20
-20 20 -13 0 -20 7 -20 20 0 18 -7 20 -60 20 -53 0 -60 2 -60 20 0 18 -7 20
-80 20 -73 0 -80 -2 -80 -20z"/>
<path d="M4240 2940 c0 -17 -7 -20 -40 -20 -33 0 -40 -3 -40 -20 0 -18 -7 -20
-60 -20 l-60 0 0 -40 c0 -33 -3 -40 -20 -40 -18 0 -20 -7 -20 -80 0 -73 2 -80
20 -80 13 0 20 -7 20 -20 0 -13 7 -20 20 -20 13 0 20 -7 20 -20 0 -18 7 -20
60 -20 53 0 60 2 60 20 0 17 7 20 40 20 33 0 40 3 40 20 0 13 7 20 20 20 19 0
20 7 20 100 l0 100 80 0 c73 0 80 -2 80 -20 0 -18 7 -20 60 -20 53 0 60 2 60
20 0 13 -7 20 -20 20 -13 0 -20 7 -20 20 0 13 -7 20 -20 20 -13 0 -20 7 -20
20 0 19 -7 20 -100 20 -93 0 -100 1 -100 20 0 17 -7 20 -40 20 -33 0 -40 -3
-40 -20z"/>
<path d="M3400 2780 c0 -13 -7 -20 -20 -20 -13 0 -20 -7 -20 -20 0 -18 -7 -20
-60 -20 -53 0 -60 -2 -60 -20 0 -13 -7 -20 -20 -20 -17 0 -20 -7 -20 -40 0
-33 -3 -40 -20 -40 -13 0 -20 -7 -20 -20 0 -17 7 -20 40 -20 33 0 40 3 40 20
0 13 7 20 20 20 13 0 20 7 20 20 0 17 7 20 40 20 33 0 40 3 40 20 0 13 7 20
20 20 13 0 20 -7 20 -20 0 -13 7 -20 20 -20 17 0 20 -7 20 -40 0 -33 3 -40 20
-40 17 0 20 -7 20 -40 l0 -40 140 0 140 0 0 120 c0 113 -1 120 -20 120 -13 0
-20 7 -20 20 0 13 -7 20 -20 20 -13 0 -20 7 -20 20 0 19 -7 20 -140 20 -133 0
-140 -1 -140 -20z"/>
<path d="M3360 2340 c0 -18 -7 -20 -60 -20 -53 0 -60 -2 -60 -20 0 -17 -7 -20
-40 -20 l-40 0 0 -40 c0 -33 -3 -40 -20 -40 -13 0 -20 -7 -20 -20 0 -18 7 -20
60 -20 53 0 60 -2 60 -20 0 -18 7 -20 80 -20 73 0 80 2 80 20 0 17 7 20 40 20
33 0 40 3 40 20 0 17 7 20 40 20 33 0 40 3 40 20 0 13 7 20 20 20 13 0 20 7
20 20 0 13 -7 20 -20 20 -13 0 -20 7 -20 20 0 17 -7 20 -40 20 -33 0 -40 3
-40 20 0 18 -7 20 -60 20 -53 0 -60 -2 -60 -20z"/>
<path d="M4080 2340 c0 -17 7 -20 40 -20 33 0 40 -3 40 -20 0 -17 7 -20 40
-20 33 0 40 -3 40 -20 0 -18 7 -20 60 -20 53 0 60 -2 60 -20 0 -18 7 -20 60
-20 53 0 60 2 60 20 0 18 -7 20 -60 20 -53 0 -60 2 -60 20 0 18 -7 20 -60 20
-53 0 -60 2 -60 20 0 17 -7 20 -40 20 -33 0 -40 3 -40 20 0 17 -7 20 -40 20
-33 0 -40 -3 -40 -20z"/>
<path d="M4400 2140 c0 -17 -7 -20 -40 -20 l-40 0 0 -40 c0 -33 -3 -40 -20
-40 -13 0 -20 -7 -20 -20 0 -17 -7 -20 -40 -20 -33 0 -40 -3 -40 -20 0 -13 -7
-20 -20 -20 -13 0 -20 -7 -20 -20 0 -17 7 -20 40 -20 33 0 40 3 40 20 0 13 7
20 20 20 13 0 20 7 20 20 0 13 7 20 20 20 13 0 20 7 20 20 0 13 7 20 20 20 13
0 20 7 20 20 0 13 7 20 20 20 13 0 20 7 20 20 0 17 7 20 40 20 33 0 40 3 40
20 0 17 -7 20 -40 20 -33 0 -40 -3 -40 -20z"/>
<path d="M640 1160 l0 -40 40 0 40 0 0 -120 0 -120 40 0 40 0 0 120 0 120 40
0 40 0 0 40 0 40 -120 0 -120 0 0 -40z"/>
<path d="M960 1180 c0 -13 -7 -20 -20 -20 -19 0 -20 -7 -20 -120 0 -113 1
-120 20 -120 13 0 20 -7 20 -20 0 -18 7 -20 80 -20 73 0 80 2 80 20 0 13 7 20
20 20 19 0 20 7 20 120 0 113 -1 120 -20 120 -13 0 -20 7 -20 20 0 18 -7 20
-80 20 -73 0 -80 -2 -80 -20z m120 -140 l0 -80 -40 0 -40 0 0 80 0 80 40 0 40
0 0 -80z"/>
<path d="M1240 1040 l0 -160 100 0 c93 0 100 1 100 20 0 13 7 20 20 20 17 0
20 7 20 40 0 33 -3 40 -20 40 -17 0 -20 7 -20 40 0 33 3 40 20 40 17 0 20 7
20 40 0 33 -3 40 -20 40 -13 0 -20 7 -20 20 0 19 -7 20 -100 20 l-100 0 0
-160z m160 60 c0 -17 -7 -20 -40 -20 -33 0 -40 3 -40 20 0 17 7 20 40 20 33 0
40 -3 40 -20z m0 -120 c0 -17 -7 -20 -40 -20 -33 0 -40 3 -40 20 0 17 7 20 40
20 33 0 40 -3 40 -20z"/>
<path d="M1560 1180 c0 -13 -7 -20 -20 -20 -19 0 -20 -7 -20 -120 0 -113 1
-120 20 -120 13 0 20 -7 20 -20 0 -19 7 -20 100 -20 l100 0 0 40 0 40 -80 0
c-73 0 -80 2 -80 20 0 18 7 20 80 20 l80 0 0 40 0 40 -80 0 c-73 0 -80 2 -80
20 0 18 7 20 80 20 l80 0 0 40 0 40 -100 0 c-93 0 -100 -1 -100 -20z"/>
<path d="M1880 1180 c0 -13 -7 -20 -20 -20 -19 0 -20 -7 -20 -120 0 -113 1
-120 20 -120 13 0 20 -7 20 -20 0 -19 7 -20 100 -20 l100 0 0 40 0 40 -80 0
-80 0 0 80 0 80 80 0 80 0 0 40 0 40 -100 0 c-93 0 -100 -1 -100 -20z"/>
<path d="M2160 1180 c0 -13 -7 -20 -20 -20 -19 0 -20 -7 -20 -120 0 -113 1
-120 20 -120 13 0 20 -7 20 -20 0 -18 7 -20 80 -20 73 0 80 2 80 20 0 13 7 20
20 20 19 0 20 7 20 120 0 113 -1 120 -20 120 -13 0 -20 7 -20 20 0 18 -7 20
-80 20 -73 0 -80 -2 -80 -20z m120 -140 l0 -80 -40 0 -40 0 0 80 0 80 40 0 40
0 0 -80z"/>
<path d="M2400 1040 l0 -160 40 0 40 0 0 80 c0 73 2 80 20 80 13 0 20 -7 20
-20 0 -13 7 -20 20 -20 13 0 20 -7 20 -20 0 -13 7 -20 20 -20 17 0 20 -7 20
-40 l0 -40 40 0 40 0 0 160 0 160 -40 0 -40 0 0 -60 c0 -53 -2 -60 -20 -60
-13 0 -20 7 -20 20 0 13 -7 20 -20 20 -13 0 -20 7 -20 20 0 13 -7 20 -20 20
-13 0 -20 7 -20 20 0 17 -7 20 -40 20 l-40 0 0 -160z"/>
<path d="M2720 1160 l0 -40 40 0 40 0 0 -120 0 -120 40 0 40 0 0 120 0 120 40
0 40 0 0 40 0 40 -120 0 -120 0 0 -40z"/>
<path d="M3000 1160 l0 -40 40 0 40 0 0 -80 0 -80 -40 0 -40 0 0 -40 0 -40
120 0 120 0 0 40 0 40 -40 0 -40 0 0 80 0 80 40 0 40 0 0 40 0 40 -120 0 -120
0 0 -40z"/>
<path d="M3280 1040 l0 -160 40 0 40 0 0 80 c0 73 2 80 20 80 13 0 20 -7 20
-20 0 -13 7 -20 20 -20 13 0 20 -7 20 -20 0 -13 7 -20 20 -20 17 0 20 -7 20
-40 l0 -40 40 0 40 0 0 160 0 160 -40 0 -40 0 0 -60 c0 -53 -2 -60 -20 -60
-13 0 -20 7 -20 20 0 13 -7 20 -20 20 -13 0 -20 7 -20 20 0 13 -7 20 -20 20
-13 0 -20 7 -20 20 0 17 -7 20 -40 20 l-40 0 0 -160z"/>
<path d="M3600 1060 c0 -133 1 -140 20 -140 13 0 20 -7 20 -20 0 -18 7 -20 80
-20 73 0 80 2 80 20 0 13 7 20 20 20 19 0 20 7 20 140 l0 140 -40 0 -40 0 0
-120 0 -120 -40 0 -40 0 0 120 0 120 -40 0 -40 0 0 -140z"/>
<path d="M3920 1180 c0 -13 -7 -20 -20 -20 -19 0 -20 -7 -20 -120 0 -113 1
-120 20 -120 13 0 20 -7 20 -20 0 -19 7 -20 100 -20 l100 0 0 40 0 40 -80 0
c-73 0 -80 2 -80 20 0 18 7 20 80 20 l80 0 0 40 0 40 -80 0 c-73 0 -80 2 -80
20 0 18 7 20 80 20 l80 0 0 40 0 40 -100 0 c-93 0 -100 -1 -100 -20z"/>
<path d="M4160 1040 l0 -160 100 0 c93 0 100 1 100 20 0 13 7 20 20 20 19 0
20 7 20 120 0 113 -1 120 -20 120 -13 0 -20 7 -20 20 0 19 -7 20 -100 20
l-100 0 0 -160z m160 0 l0 -80 -40 0 -40 0 0 80 0 80 40 0 40 0 0 -80z"/>
</g>
</svg>
